<?xml version="1.0" encoding="UTF-8" standalone="no"?>
<svg style="enable-background:new 0 0 512 512" xmlns="http://www.w3.org/2000/svg" xml:space="preserve" viewBox="0 0 512 512" version="1.1" y="0px" x="0px" xmlns:xlink="http://www.w3.org/1999/xlink">
		<path d="m392.77 0h-269.95c-37.088 0-48.16 28.384-48.16 46.24v433.79c0 21.376 10.752 27.68 16.64 30.144 2.304 0.96 6.144 1.824 10.592 1.824 6.88 0 15.232-2.048 21.984-8.832 0 0 128.22-151.01 130.3-153.47 2.08-2.464 3.104-2.464 4.512-2.464h81.088c34.656 0 41.248-24.192 45.056-38.88 3.104-12.256 38.816-187.46 49.888-242.82 8.29-42.746-2.46-65.53-41.95-65.53zm-26.88 83.008c-2.912 14.464-6.272 30.912-9.76 48.128-1.536 7.456-8.096 12.864-15.68 12.864h-89.792c-8.832 0-16 7.168-16 16v32c0 8.832 7.168 16 16 16h70.144c10.144 0 17.696 9.408 15.648 19.328-3.488 16.992-6.624 32.032-8.992 43.424-1.536 7.424-8.032 12.48-15.616 12.48h-53.184c-20.992 0-39.424 8.672-53.312 25.056l-66.688 78.56v-306.85c0-8.832 7.168-16 16-16h195.52c10.11 0 17.73 9.088 15.71 19.008z"/>
</svg>
